<svg xmlns="http://www.w3.org/2000/svg" version="1.1" xmlns:xlink="http://www.w3.org/1999/xlink" xmlns:svgjs="http://svgjs.dev/svgjs" width="1440" height="560" preserveAspectRatio="none" viewBox="0 0 1440 560"><g mask="url(&quot;#SvgjsMask1000&quot;)" fill="none"><rect width="1440" height="560" x="0" y="0" fill="#0e2a47"></rect><path d="M -54.50184204668949,477 C 41.5,437.4 233.5,275.8 425.4981579533105,279 C 617.5,282.2 713.5,537 905.4981579533105,493 C 1097.5,449 1193.5,71.4 1385.4981579533105,59 C 1577.5,46.6 1854.6,413.2 1865.4981579533105,431 C 1876.4,448.8 1525.1,204.6 1440,148" stroke="rgba(51, 121, 194, 0.58)" stroke-width="2"></path><path d="M -806.6747680345591,230 C -710.67,252.4 -518.67,334 -326.6747680345591,342 C -134.67,350 -38.67,265 153.32523196544088,270 C 345.33,275 441.33,405.6 633.3252319654409,367 C 825.33,328.4 951.99,68 1113.325231965441,77 C 1274.66,86 1374.67,345 1440,412" stroke="rgba(51, 121, 194, 0.58)" stroke-width="2"></path><path d="M -375.6021455169432,385 C -279.6,353.2 -87.6,204.8 104.39785448305682,226 C 296.4,247.2 392.4,514 584.3978544830568,491 C 776.4,468 872.4,131.2 1064.3978544830568,111 C 1256.4,90.8 1469.28,366.6 1544.3978544830568,390 C 1619.52,413.4 1460.88,260.4 1440,228" stroke="rgba(51, 121, 194, 0.58)" stroke-width="2"></path><path d="M -563.9808478396559,335 C -467.98,300.4 -275.98,144.4 -83.98084783965587,162 C 108.02,179.6 204.02,424 396.0191521603441,423 C 588.02,422 684.02,161.8 876.0191521603441,157 C 1068.02,152.2 1243.22,382 1356.0191521603442,399 C 1468.82,416 1423.2,273.4 1440,242" stroke="rgba(51, 121, 194, 0.58)" stroke-width="2"></path></g><defs><mask id="SvgjsMask1000"><rect width="1440" height="560" fill="#ffffff"></rect></mask></defs></svg>