<svg xmlns="http://www.w3.org/2000/svg" version="1.1" xmlns:xlink="http://www.w3.org/1999/xlink" xmlns:svgjs="http://svgjs.dev/svgjs" width="1440" height="250" preserveAspectRatio="none" viewBox="0 0 1440 250"><g mask="url(&quot;#SvgjsMask1003&quot;)" fill="none"><rect width="1440" height="250" x="0" y="0" fill="#0e2a47"></rect><path d="M21 250L271 0L523 0L273 250z" fill="url(&quot;#SvgjsLinearGradient1004&quot;)"></path><path d="M264.6 250L514.6 0L831.1 0L581.1 250z" fill="url(&quot;#SvgjsLinearGradient1004&quot;)"></path><path d="M492.20000000000005 250L742.2 0L884.7 0L634.7 250z" fill="url(&quot;#SvgjsLinearGradient1004&quot;)"></path><path d="M748.8000000000001 250L998.8000000000001 0L1330.3000000000002 0L1080.3000000000002 250z" fill="url(&quot;#SvgjsLinearGradient1004&quot;)"></path><path d="M1410 250L1160 0L1107.5 0L1357.5 250z" fill="url(&quot;#SvgjsLinearGradient1005&quot;)"></path><path d="M1198.4 250L948.4000000000001 0L858.4000000000001 0L1108.4 250z" fill="url(&quot;#SvgjsLinearGradient1005&quot;)"></path><path d="M919.8 250L669.8 0L488.29999999999995 0L738.3 250z" fill="url(&quot;#SvgjsLinearGradient1005&quot;)"></path><path d="M701.1999999999999 250L451.19999999999993 0L362.69999999999993 0L612.6999999999999 250z" fill="url(&quot;#SvgjsLinearGradient1005&quot;)"></path><path d="M1209.6871277844652 250L1440 19.68712778446536L1440 250z" fill="url(&quot;#SvgjsLinearGradient1004&quot;)"></path><path d="M0 250L230.31287221553464 250L 0 19.68712778446536z" fill="url(&quot;#SvgjsLinearGradient1005&quot;)"></path></g><defs><mask id="SvgjsMask1003"><rect width="1440" height="250" fill="#ffffff"></rect></mask><linearGradient x1="0%" y1="100%" x2="100%" y2="0%" id="SvgjsLinearGradient1004"><stop stop-color="rgba(15, 70, 185, 0.52)" offset="0"></stop><stop stop-opacity="0" stop-color="rgba(15, 70, 185, 0.52)" offset="0.66"></stop></linearGradient><linearGradient x1="100%" y1="100%" x2="0%" y2="0%" id="SvgjsLinearGradient1005"><stop stop-color="rgba(15, 70, 185, 0.52)" offset="0"></stop><stop stop-opacity="0" stop-color="rgba(15, 70, 185, 0.52)" offset="0.66"></stop></linearGradient></defs></svg>