<svg xmlns="http://www.w3.org/2000/svg" version="1.1" xmlns:xlink="http://www.w3.org/1999/xlink" xmlns:svgjs="http://svgjs.dev/svgjs" width="1440" height="560" preserveAspectRatio="none" viewBox="0 0 1440 560"><g mask="url(&quot;#SvgjsMask1000&quot;)" fill="none"><rect width="1440" height="560" x="0" y="0" fill="#0e2a47"></rect><path d="M134.88 294.87L199.84 332.37L199.84 407.37L134.88 444.87L69.93 407.37L69.93 332.37zM264.79 519.87L329.75 557.37L329.75 632.37L264.79 669.87L199.84 632.37L199.84 557.37zM394.7 69.87L459.65 107.37L459.65 182.37L394.7 219.87L329.75 182.37L329.75 107.37zM329.75 182.37L394.7 219.87L394.7 294.87L329.75 332.37L264.79 294.87L264.79 219.87zM394.7 519.87L459.65 557.37L459.65 632.37L394.7 669.87L329.75 632.37L329.75 557.37zM459.65 -42.63L524.61 -5.13L524.61 69.87L459.65 107.37L394.7 69.87L394.7 -5.13zM589.56 407.37L654.51 444.87L654.51 519.87L589.56 557.37L524.61 519.87L524.61 444.87zM784.42 294.87L849.38 332.37L849.38 407.37L784.42 444.87L719.47 407.37L719.47 332.37zM1563.87 294.87L1628.82 332.37L1628.82 407.37L1563.87 444.87L1498.91 407.37L1498.91 332.37zM1563.87 519.87L1628.82 557.37L1628.82 632.37L1563.87 669.87L1498.91 632.37L1498.91 557.37z" stroke="#03305d" stroke-width="2"></path><path d="M127.38 294.87 a7.5 7.5 0 1 0 15 0 a7.5 7.5 0 1 0 -15 0zM192.34 332.37 a7.5 7.5 0 1 0 15 0 a7.5 7.5 0 1 0 -15 0zM192.34 407.37 a7.5 7.5 0 1 0 15 0 a7.5 7.5 0 1 0 -15 0zM127.38 444.87 a7.5 7.5 0 1 0 15 0 a7.5 7.5 0 1 0 -15 0zM62.43 407.37 a7.5 7.5 0 1 0 15 0 a7.5 7.5 0 1 0 -15 0zM62.43 332.37 a7.5 7.5 0 1 0 15 0 a7.5 7.5 0 1 0 -15 0zM257.29 519.87 a7.5 7.5 0 1 0 15 0 a7.5 7.5 0 1 0 -15 0zM322.25 557.37 a7.5 7.5 0 1 0 15 0 a7.5 7.5 0 1 0 -15 0zM322.25 632.37 a7.5 7.5 0 1 0 15 0 a7.5 7.5 0 1 0 -15 0zM257.29 669.87 a7.5 7.5 0 1 0 15 0 a7.5 7.5 0 1 0 -15 0zM192.34 632.37 a7.5 7.5 0 1 0 15 0 a7.5 7.5 0 1 0 -15 0zM192.34 557.37 a7.5 7.5 0 1 0 15 0 a7.5 7.5 0 1 0 -15 0zM387.2 69.87 a7.5 7.5 0 1 0 15 0 a7.5 7.5 0 1 0 -15 0zM452.15 107.37 a7.5 7.5 0 1 0 15 0 a7.5 7.5 0 1 0 -15 0zM452.15 182.37 a7.5 7.5 0 1 0 15 0 a7.5 7.5 0 1 0 -15 0zM387.2 219.87 a7.5 7.5 0 1 0 15 0 a7.5 7.5 0 1 0 -15 0zM322.25 182.37 a7.5 7.5 0 1 0 15 0 a7.5 7.5 0 1 0 -15 0zM322.25 107.37 a7.5 7.5 0 1 0 15 0 a7.5 7.5 0 1 0 -15 0zM387.2 294.87 a7.5 7.5 0 1 0 15 0 a7.5 7.5 0 1 0 -15 0zM322.25 332.37 a7.5 7.5 0 1 0 15 0 a7.5 7.5 0 1 0 -15 0zM257.29 294.87 a7.5 7.5 0 1 0 15 0 a7.5 7.5 0 1 0 -15 0zM257.29 219.87 a7.5 7.5 0 1 0 15 0 a7.5 7.5 0 1 0 -15 0zM387.2 519.87 a7.5 7.5 0 1 0 15 0 a7.5 7.5 0 1 0 -15 0zM452.15 557.37 a7.5 7.5 0 1 0 15 0 a7.5 7.5 0 1 0 -15 0zM452.15 632.37 a7.5 7.5 0 1 0 15 0 a7.5 7.5 0 1 0 -15 0zM387.2 669.87 a7.5 7.5 0 1 0 15 0 a7.5 7.5 0 1 0 -15 0zM452.15 -42.63 a7.5 7.5 0 1 0 15 0 a7.5 7.5 0 1 0 -15 0zM517.11 -5.13 a7.5 7.5 0 1 0 15 0 a7.5 7.5 0 1 0 -15 0zM517.11 69.87 a7.5 7.5 0 1 0 15 0 a7.5 7.5 0 1 0 -15 0zM387.2 -5.13 a7.5 7.5 0 1 0 15 0 a7.5 7.5 0 1 0 -15 0zM582.06 407.37 a7.5 7.5 0 1 0 15 0 a7.5 7.5 0 1 0 -15 0zM647.01 444.87 a7.5 7.5 0 1 0 15 0 a7.5 7.5 0 1 0 -15 0zM647.01 519.87 a7.5 7.5 0 1 0 15 0 a7.5 7.5 0 1 0 -15 0zM582.06 557.37 a7.5 7.5 0 1 0 15 0 a7.5 7.5 0 1 0 -15 0zM517.11 519.87 a7.5 7.5 0 1 0 15 0 a7.5 7.5 0 1 0 -15 0zM517.11 444.87 a7.5 7.5 0 1 0 15 0 a7.5 7.5 0 1 0 -15 0zM776.92 294.87 a7.5 7.5 0 1 0 15 0 a7.5 7.5 0 1 0 -15 0zM841.88 332.37 a7.5 7.5 0 1 0 15 0 a7.5 7.5 0 1 0 -15 0zM841.88 407.37 a7.5 7.5 0 1 0 15 0 a7.5 7.5 0 1 0 -15 0zM776.92 444.87 a7.5 7.5 0 1 0 15 0 a7.5 7.5 0 1 0 -15 0zM711.97 407.37 a7.5 7.5 0 1 0 15 0 a7.5 7.5 0 1 0 -15 0zM711.97 332.37 a7.5 7.5 0 1 0 15 0 a7.5 7.5 0 1 0 -15 0zM1556.37 294.87 a7.5 7.5 0 1 0 15 0 a7.5 7.5 0 1 0 -15 0zM1621.32 332.37 a7.5 7.5 0 1 0 15 0 a7.5 7.5 0 1 0 -15 0zM1621.32 407.37 a7.5 7.5 0 1 0 15 0 a7.5 7.5 0 1 0 -15 0zM1556.37 444.87 a7.5 7.5 0 1 0 15 0 a7.5 7.5 0 1 0 -15 0zM1491.41 407.37 a7.5 7.5 0 1 0 15 0 a7.5 7.5 0 1 0 -15 0zM1491.41 332.37 a7.5 7.5 0 1 0 15 0 a7.5 7.5 0 1 0 -15 0zM1556.37 519.87 a7.5 7.5 0 1 0 15 0 a7.5 7.5 0 1 0 -15 0zM1621.32 557.37 a7.5 7.5 0 1 0 15 0 a7.5 7.5 0 1 0 -15 0zM1621.32 632.37 a7.5 7.5 0 1 0 15 0 a7.5 7.5 0 1 0 -15 0zM1556.37 669.87 a7.5 7.5 0 1 0 15 0 a7.5 7.5 0 1 0 -15 0zM1491.41 632.37 a7.5 7.5 0 1 0 15 0 a7.5 7.5 0 1 0 -15 0zM1491.41 557.37 a7.5 7.5 0 1 0 15 0 a7.5 7.5 0 1 0 -15 0z" fill="#03305d"></path><path d="M69.13 209.55L112.44 234.55L112.44 284.55L69.13 309.55L25.83 284.55L25.83 234.55zM69.13 359.55L112.44 384.55L112.44 434.55L69.13 459.55L25.83 434.55L25.83 384.55zM155.74 209.55L199.04 234.55L199.04 284.55L155.74 309.55L112.44 284.55L112.44 234.55zM112.44 284.55L155.74 309.55L155.74 359.55L112.44 384.55L69.13 359.55L69.13 309.55zM112.44 434.55L155.74 459.55L155.74 509.55L112.44 534.55L69.13 509.55L69.13 459.55zM155.74 509.55L199.04 534.55L199.04 584.55L155.74 609.55L112.44 584.55L112.44 534.55zM199.04 -15.45L242.34 9.55L242.34 59.55L199.04 84.55L155.74 59.55L155.74 9.55zM199.04 134.55L242.34 159.55L242.34 209.55L199.04 234.55L155.74 209.55L155.74 159.55zM285.64 -15.45L328.95 9.55L328.95 59.55L285.64 84.55L242.34 59.55L242.34 9.55zM285.64 284.55L328.95 309.55L328.95 359.55L285.64 384.55L242.34 359.55L242.34 309.55zM328.95 359.55L372.25 384.55L372.25 434.55L328.95 459.55L285.64 434.55L285.64 384.55zM285.64 434.55L328.95 459.55L328.95 509.55L285.64 534.55L242.34 509.55L242.34 459.55zM328.95 509.55L372.25 534.55L372.25 584.55L328.95 609.55L285.64 584.55L285.64 534.55zM372.25 -15.45L415.55 9.55L415.55 59.55L372.25 84.55L328.95 59.55L328.95 9.55zM372.25 134.55L415.55 159.55L415.55 209.55L372.25 234.55L328.95 209.55L328.95 159.55zM372.25 284.55L415.55 309.55L415.55 359.55L372.25 384.55L328.95 359.55L328.95 309.55zM372.25 434.55L415.55 459.55L415.55 509.55L372.25 534.55L328.95 509.55L328.95 459.55zM415.55 509.55L458.86 534.55L458.86 584.55L415.55 609.55L372.25 584.55L372.25 534.55zM458.86 -15.45L502.16 9.55L502.16 59.55L458.86 84.55L415.55 59.55L415.55 9.55zM502.16 59.55L545.46 84.55L545.46 134.55L502.16 159.55L458.86 134.55L458.86 84.55zM458.86 134.55L502.16 159.55L502.16 209.55L458.86 234.55L415.55 209.55L415.55 159.55zM502.16 209.55L545.46 234.55L545.46 284.55L502.16 309.55L458.86 284.55L458.86 234.55zM458.86 434.55L502.16 459.55L502.16 509.55L458.86 534.55L415.55 509.55L415.55 459.55zM502.16 509.55L545.46 534.55L545.46 584.55L502.16 609.55L458.86 584.55L458.86 534.55zM545.46 -15.45L588.76 9.55L588.76 59.55L545.46 84.55L502.16 59.55L502.16 9.55zM588.76 59.55L632.07 84.55L632.07 134.55L588.76 159.55L545.46 134.55L545.46 84.55zM588.76 209.55L632.07 234.55L632.07 284.55L588.76 309.55L545.46 284.55L545.46 234.55zM588.76 509.55L632.07 534.55L632.07 584.55L588.76 609.55L545.46 584.55L545.46 534.55zM675.37 59.55L718.67 84.55L718.67 134.55L675.37 159.55L632.07 134.55L632.07 84.55zM675.37 209.55L718.67 234.55L718.67 284.55L675.37 309.55L632.07 284.55L632.07 234.55zM718.67 -15.45L761.97 9.55L761.97 59.55L718.67 84.55L675.37 59.55L675.37 9.55zM761.97 359.55L805.28 384.55L805.28 434.55L761.97 459.55L718.67 434.55L718.67 384.55zM718.67 434.55L761.97 459.55L761.97 509.55L718.67 534.55L675.37 509.55L675.37 459.55zM848.58 59.55L891.88 84.55L891.88 134.55L848.58 159.55L805.28 134.55L805.28 84.55zM805.28 284.55L848.58 309.55L848.58 359.55L805.28 384.55L761.97 359.55L761.97 309.55zM848.58 509.55L891.88 534.55L891.88 584.55L848.58 609.55L805.28 584.55L805.28 534.55zM891.88 -15.45L935.18 9.55L935.18 59.55L891.88 84.55L848.58 59.55L848.58 9.55zM935.18 59.55L978.49 84.55L978.49 134.55L935.18 159.55L891.88 134.55L891.88 84.55zM891.88 284.55L935.18 309.55L935.18 359.55L891.88 384.55L848.58 359.55L848.58 309.55zM891.88 434.55L935.18 459.55L935.18 509.55L891.88 534.55L848.58 509.55L848.58 459.55zM935.18 509.55L978.49 534.55L978.49 584.55L935.18 609.55L891.88 584.55L891.88 534.55zM1021.79 59.55L1065.09 84.55L1065.09 134.55L1021.79 159.55L978.49 134.55L978.49 84.55zM978.49 134.55L1021.79 159.55L1021.79 209.55L978.49 234.55L935.18 209.55L935.18 159.55zM978.49 434.55L1021.79 459.55L1021.79 509.55L978.49 534.55L935.18 509.55L935.18 459.55zM1021.79 509.55L1065.09 534.55L1065.09 584.55L1021.79 609.55L978.49 584.55L978.49 534.55zM1065.09 -15.45L1108.39 9.55L1108.39 59.55L1065.09 84.55L1021.79 59.55L1021.79 9.55zM1108.39 59.55L1151.69 84.55L1151.69 134.55L1108.39 159.55L1065.09 134.55L1065.09 84.55zM1065.09 134.55L1108.39 159.55L1108.39 209.55L1065.09 234.55L1021.79 209.55L1021.79 159.55zM1065.09 284.55L1108.39 309.55L1108.39 359.55L1065.09 384.55L1021.79 359.55L1021.79 309.55zM1108.39 359.55L1151.69 384.55L1151.69 434.55L1108.39 459.55L1065.09 434.55L1065.09 384.55zM1065.09 434.55L1108.39 459.55L1108.39 509.55L1065.09 534.55L1021.79 509.55L1021.79 459.55zM1195 59.55L1238.3 84.55L1238.3 134.55L1195 159.55L1151.69 134.55L1151.69 84.55zM1151.69 284.55L1195 309.55L1195 359.55L1151.69 384.55L1108.39 359.55L1108.39 309.55zM1195 359.55L1238.3 384.55L1238.3 434.55L1195 459.55L1151.69 434.55L1151.69 384.55zM1195 509.55L1238.3 534.55L1238.3 584.55L1195 609.55L1151.69 584.55L1151.69 534.55zM1281.6 59.55L1324.9 84.55L1324.9 134.55L1281.6 159.55L1238.3 134.55L1238.3 84.55zM1281.6 209.55L1324.9 234.55L1324.9 284.55L1281.6 309.55L1238.3 284.55L1238.3 234.55zM1238.3 284.55L1281.6 309.55L1281.6 359.55L1238.3 384.55L1195 359.55L1195 309.55zM1281.6 359.55L1324.9 384.55L1324.9 434.55L1281.6 459.55L1238.3 434.55L1238.3 384.55zM1281.6 509.55L1324.9 534.55L1324.9 584.55L1281.6 609.55L1238.3 584.55L1238.3 534.55zM1368.21 59.55L1411.51 84.55L1411.51 134.55L1368.21 159.55L1324.9 134.55L1324.9 84.55zM1324.9 134.55L1368.21 159.55L1368.21 209.55L1324.9 234.55L1281.6 209.55L1281.6 159.55zM1324.9 284.55L1368.21 309.55L1368.21 359.55L1324.9 384.55L1281.6 359.55L1281.6 309.55zM1324.9 434.55L1368.21 459.55L1368.21 509.55L1324.9 534.55L1281.6 509.55L1281.6 459.55zM1454.81 59.55L1498.12 84.55L1498.12 134.55L1454.81 159.55L1411.51 134.55L1411.51 84.55zM1411.51 134.55L1454.81 159.55L1454.81 209.55L1411.51 234.55L1368.21 209.55L1368.21 159.55zM1411.51 284.55L1454.81 309.55L1454.81 359.55L1411.51 384.55L1368.21 359.55L1368.21 309.55zM1411.51 434.55L1454.81 459.55L1454.81 509.55L1411.51 534.55L1368.21 509.55L1368.21 459.55zM1454.81 509.55L1498.12 534.55L1498.12 584.55L1454.81 609.55L1411.51 584.55L1411.51 534.55z" stroke="rgba(6, 80, 156, 0.93)" stroke-width="2"></path></g><defs><mask id="SvgjsMask1000"><rect width="1440" height="560" fill="#ffffff"></rect></mask></defs></svg>