<svg width="1000" height="1000" viewBox="0 0 1000 1000" xmlns="http://www.w3.org/2000/svg">
      <rect x="0" y="0" width="1000" height="1000" fill="#0e2a47" />
      <rect width="1000" height="1000" fill="#0e2a47" /><path d="M 450 62.35382907247958 L 432 93.53074360871936 L 396 93.53074360871938 L 378 62.353829072479584 L 396 31.176914536239796 L 432 31.17691453623979 L 450 62.35382907247957Z" fill="none" stroke="#0063c7" stroke-width="1" stroke-opacity="0.5" /><circle cx="450" cy="62.35382907247958" r="3" fill="#004285" /><circle cx="432" cy="93.53074360871936" r="3" fill="#004285" /><circle cx="396" cy="93.53074360871938" r="3" fill="#004285" /><circle cx="378" cy="62.353829072479584" r="3" fill="#004285" /><circle cx="396" cy="31.176914536239796" r="3" fill="#004285" /><circle cx="432" cy="31.17691453623979" r="3" fill="#004285" /><path d="M 720 31.17691453623979 L 702 62.35382907247958 L 666 62.353829072479584 L 648 31.176914536239792 L 666 7.105427357601002e-15 L 702 0 L 720 31.17691453623978Z" fill="none" stroke="#0063c7" stroke-width="1" stroke-opacity="0.5" /><circle cx="720" cy="31.17691453623979" r="3" fill="#004285" /><circle cx="702" cy="62.35382907247958" r="3" fill="#004285" /><circle cx="666" cy="62.353829072479584" r="3" fill="#004285" /><circle cx="648" cy="31.176914536239792" r="3" fill="#004285" /><circle cx="666" cy="7.105427357601002e-15" r="3" fill="#004285" /><circle cx="702" cy="0" r="3" fill="#004285" /><path d="M 882 62.35382907247958 L 864 93.53074360871936 L 828 93.53074360871938 L 810 62.353829072479584 L 828 31.176914536239796 L 864 31.17691453623979 L 882 62.35382907247957Z" fill="none" stroke="#0063c7" stroke-width="1" stroke-opacity="0.5" /><circle cx="882" cy="62.35382907247958" r="3" fill="#004285" /><circle cx="864" cy="93.53074360871936" r="3" fill="#004285" /><circle cx="828" cy="93.53074360871938" r="3" fill="#004285" /><circle cx="810" cy="62.353829072479584" r="3" fill="#004285" /><circle cx="828" cy="31.176914536239796" r="3" fill="#004285" /><circle cx="864" cy="31.17691453623979" r="3" fill="#004285" /><path d="M 1152 31.17691453623979 L 1134 62.35382907247958 L 1098 62.353829072479584 L 1080 31.176914536239792 L 1098 7.105427357601002e-15 L 1134 0 L 1152 31.17691453623978Z" fill="none" stroke="#0063c7" stroke-width="1" stroke-opacity="0.5" /><circle cx="1152" cy="31.17691453623979" r="3" fill="#004285" /><circle cx="1134" cy="62.35382907247958" r="3" fill="#004285" /><circle cx="1098" cy="62.353829072479584" r="3" fill="#004285" /><circle cx="1080" cy="31.176914536239792" r="3" fill="#004285" /><circle cx="1098" cy="7.105427357601002e-15" r="3" fill="#004285" /><circle cx="1134" cy="0" r="3" fill="#004285" /><path d="M 342 124.70765814495915 L 324 155.88457268119893 L 288 155.88457268119896 L 270 124.70765814495915 L 288 93.53074360871938 L 324 93.53074360871936 L 342 124.70765814495914Z" fill="none" stroke="#0063c7" stroke-width="1" stroke-opacity="0.5" /><circle cx="342" cy="124.70765814495915" r="3" fill="#004285" /><circle cx="324" cy="155.88457268119893" r="3" fill="#004285" /><circle cx="288" cy="155.88457268119896" r="3" fill="#004285" /><circle cx="270" cy="124.70765814495915" r="3" fill="#004285" /><circle cx="288" cy="93.53074360871938" r="3" fill="#004285" /><circle cx="324" cy="93.53074360871936" r="3" fill="#004285" /><path d="M 936 93.53074360871936 L 918 124.70765814495915 L 882 124.70765814495915 L 864 93.53074360871936 L 882 62.353829072479584 L 918 62.35382907247957 L 936 93.53074360871935Z" fill="none" stroke="#0063c7" stroke-width="1" stroke-opacity="0.5" /><circle cx="936" cy="93.53074360871936" r="3" fill="#004285" /><circle cx="918" cy="124.70765814495915" r="3" fill="#004285" /><circle cx="882" cy="124.70765814495915" r="3" fill="#004285" /><circle cx="864" cy="93.53074360871936" r="3" fill="#004285" /><circle cx="882" cy="62.353829072479584" r="3" fill="#004285" /><circle cx="918" cy="62.35382907247957" r="3" fill="#004285" /><path d="M 126 187.06148721743872 L 108 218.23840175367852 L 72 218.23840175367852 L 54 187.06148721743872 L 71.99999999999999 155.88457268119893 L 108 155.88457268119893 L 126 187.06148721743872Z" fill="none" stroke="#0063c7" stroke-width="1" stroke-opacity="0.5" /><circle cx="126" cy="187.06148721743872" r="3" fill="#004285" /><circle cx="108" cy="218.23840175367852" r="3" fill="#004285" /><circle cx="72" cy="218.23840175367852" r="3" fill="#004285" /><circle cx="54" cy="187.06148721743872" r="3" fill="#004285" /><circle cx="71.99999999999999" cy="155.88457268119893" r="3" fill="#004285" /><circle cx="108" cy="155.88457268119893" r="3" fill="#004285" /><path d="M 180 155.88457268119893 L 162 187.06148721743872 L 126 187.06148721743872 L 108 155.88457268119893 L 125.99999999999999 124.70765814495915 L 162 124.70765814495914 L 180 155.88457268119893Z" fill="none" stroke="#0063c7" stroke-width="1" stroke-opacity="0.5" /><circle cx="180" cy="155.88457268119893" r="3" fill="#004285" /><circle cx="162" cy="187.06148721743872" r="3" fill="#004285" /><circle cx="126" cy="187.06148721743872" r="3" fill="#004285" /><circle cx="108" cy="155.88457268119893" r="3" fill="#004285" /><circle cx="125.99999999999999" cy="124.70765814495915" r="3" fill="#004285" /><circle cx="162" cy="124.70765814495914" r="3" fill="#004285" /><path d="M 720 155.88457268119893 L 702 187.06148721743872 L 666 187.06148721743872 L 648 155.88457268119893 L 666 124.70765814495915 L 702 124.70765814495914 L 720 155.88457268119893Z" fill="none" stroke="#0063c7" stroke-width="1" stroke-opacity="0.5" /><circle cx="720" cy="155.88457268119893" r="3" fill="#004285" /><circle cx="702" cy="187.06148721743872" r="3" fill="#004285" /><circle cx="666" cy="187.06148721743872" r="3" fill="#004285" /><circle cx="648" cy="155.88457268119893" r="3" fill="#004285" /><circle cx="666" cy="124.70765814495915" r="3" fill="#004285" /><circle cx="702" cy="124.70765814495914" r="3" fill="#004285" /><path d="M 936 155.88457268119893 L 918 187.06148721743872 L 882 187.06148721743872 L 864 155.88457268119893 L 882 124.70765814495915 L 918 124.70765814495914 L 936 155.88457268119893Z" fill="none" stroke="#0063c7" stroke-width="1" stroke-opacity="0.5" /><circle cx="936" cy="155.88457268119893" r="3" fill="#004285" /><circle cx="918" cy="187.06148721743872" r="3" fill="#004285" /><circle cx="882" cy="187.06148721743872" r="3" fill="#004285" /><circle cx="864" cy="155.88457268119893" r="3" fill="#004285" /><circle cx="882" cy="124.70765814495915" r="3" fill="#004285" /><circle cx="918" cy="124.70765814495914" r="3" fill="#004285" /><path d="M 558 249.4153162899183 L 540 280.5922308261581 L 504 280.59223082615813 L 486 249.4153162899183 L 504 218.23840175367852 L 540 218.23840175367852 L 558 249.4153162899183Z" fill="none" stroke="#0063c7" stroke-width="1" stroke-opacity="0.5" /><circle cx="558" cy="249.4153162899183" r="3" fill="#004285" /><circle cx="540" cy="280.5922308261581" r="3" fill="#004285" /><circle cx="504" cy="280.59223082615813" r="3" fill="#004285" /><circle cx="486" cy="249.4153162899183" r="3" fill="#004285" /><circle cx="504" cy="218.23840175367852" r="3" fill="#004285" /><circle cx="540" cy="218.23840175367852" r="3" fill="#004285" /><path d="M 666 249.4153162899183 L 648 280.5922308261581 L 612 280.59223082615813 L 594 249.4153162899183 L 612 218.23840175367852 L 648 218.23840175367852 L 666 249.4153162899183Z" fill="none" stroke="#0063c7" stroke-width="1" stroke-opacity="0.5" /><circle cx="666" cy="249.4153162899183" r="3" fill="#004285" /><circle cx="648" cy="280.5922308261581" r="3" fill="#004285" /><circle cx="612" cy="280.59223082615813" r="3" fill="#004285" /><circle cx="594" cy="249.4153162899183" r="3" fill="#004285" /><circle cx="612" cy="218.23840175367852" r="3" fill="#004285" /><circle cx="648" cy="218.23840175367852" r="3" fill="#004285" /><path d="M 1206 249.4153162899183 L 1188 280.5922308261581 L 1152 280.59223082615813 L 1134 249.4153162899183 L 1152 218.23840175367852 L 1188 218.23840175367852 L 1206 249.4153162899183Z" fill="none" stroke="#0063c7" stroke-width="1" stroke-opacity="0.5" /><circle cx="1206" cy="249.4153162899183" r="3" fill="#004285" /><circle cx="1188" cy="280.5922308261581" r="3" fill="#004285" /><circle cx="1152" cy="280.59223082615813" r="3" fill="#004285" /><circle cx="1134" cy="249.4153162899183" r="3" fill="#004285" /><circle cx="1152" cy="218.23840175367852" r="3" fill="#004285" /><circle cx="1188" cy="218.23840175367852" r="3" fill="#004285" /><path d="M 126 311.76914536239786 L 108 342.94605989863766 L 72 342.94605989863766 L 54 311.76914536239786 L 71.99999999999999 280.5922308261581 L 108 280.5922308261581 L 126 311.76914536239786Z" fill="none" stroke="#0063c7" stroke-width="1" stroke-opacity="0.5" /><circle cx="126" cy="311.76914536239786" r="3" fill="#004285" /><circle cx="108" cy="342.94605989863766" r="3" fill="#004285" /><circle cx="72" cy="342.94605989863766" r="3" fill="#004285" /><circle cx="54" cy="311.76914536239786" r="3" fill="#004285" /><circle cx="71.99999999999999" cy="280.5922308261581" r="3" fill="#004285" /><circle cx="108" cy="280.5922308261581" r="3" fill="#004285" /><path d="M 288 280.5922308261581 L 270 311.76914536239786 L 234 311.76914536239786 L 216 280.5922308261581 L 234 249.41531628991828 L 270 249.41531628991828 L 288 280.5922308261581Z" fill="none" stroke="#0063c7" stroke-width="1" stroke-opacity="0.5" /><circle cx="288" cy="280.5922308261581" r="3" fill="#004285" /><circle cx="270" cy="311.76914536239786" r="3" fill="#004285" /><circle cx="234" cy="311.76914536239786" r="3" fill="#004285" /><circle cx="216" cy="280.5922308261581" r="3" fill="#004285" /><circle cx="234" cy="249.41531628991828" r="3" fill="#004285" /><circle cx="270" cy="249.41531628991828" r="3" fill="#004285" /><path d="M 396 280.5922308261581 L 378 311.76914536239786 L 342 311.76914536239786 L 324 280.5922308261581 L 342 249.41531628991828 L 378 249.41531628991828 L 396 280.5922308261581Z" fill="none" stroke="#0063c7" stroke-width="1" stroke-opacity="0.5" /><circle cx="396" cy="280.5922308261581" r="3" fill="#004285" /><circle cx="378" cy="311.76914536239786" r="3" fill="#004285" /><circle cx="342" cy="311.76914536239786" r="3" fill="#004285" /><circle cx="324" cy="280.5922308261581" r="3" fill="#004285" /><circle cx="342" cy="249.41531628991828" r="3" fill="#004285" /><circle cx="378" cy="249.41531628991828" r="3" fill="#004285" /><path d="M 558 311.76914536239786 L 540 342.94605989863766 L 504 342.94605989863766 L 486 311.76914536239786 L 504 280.5922308261581 L 540 280.5922308261581 L 558 311.76914536239786Z" fill="none" stroke="#0063c7" stroke-width="1" stroke-opacity="0.5" /><circle cx="558" cy="311.76914536239786" r="3" fill="#004285" /><circle cx="540" cy="342.94605989863766" r="3" fill="#004285" /><circle cx="504" cy="342.94605989863766" r="3" fill="#004285" /><circle cx="486" cy="311.76914536239786" r="3" fill="#004285" /><circle cx="504" cy="280.5922308261581" r="3" fill="#004285" /><circle cx="540" cy="280.5922308261581" r="3" fill="#004285" /><path d="M 666 311.76914536239786 L 648 342.94605989863766 L 612 342.94605989863766 L 594 311.76914536239786 L 612 280.5922308261581 L 648 280.5922308261581 L 666 311.76914536239786Z" fill="none" stroke="#0063c7" stroke-width="1" stroke-opacity="0.5" /><circle cx="666" cy="311.76914536239786" r="3" fill="#004285" /><circle cx="648" cy="342.94605989863766" r="3" fill="#004285" /><circle cx="612" cy="342.94605989863766" r="3" fill="#004285" /><circle cx="594" cy="311.76914536239786" r="3" fill="#004285" /><circle cx="612" cy="280.5922308261581" r="3" fill="#004285" /><circle cx="648" cy="280.5922308261581" r="3" fill="#004285" /><path d="M 1098 311.76914536239786 L 1080 342.94605989863766 L 1044 342.94605989863766 L 1026 311.76914536239786 L 1044 280.5922308261581 L 1080 280.5922308261581 L 1098 311.76914536239786Z" fill="none" stroke="#0063c7" stroke-width="1" stroke-opacity="0.5" /><circle cx="1098" cy="311.76914536239786" r="3" fill="#004285" /><circle cx="1080" cy="342.94605989863766" r="3" fill="#004285" /><circle cx="1044" cy="342.94605989863766" r="3" fill="#004285" /><circle cx="1026" cy="311.76914536239786" r="3" fill="#004285" /><circle cx="1044" cy="280.5922308261581" r="3" fill="#004285" /><circle cx="1080" cy="280.5922308261581" r="3" fill="#004285" /><path d="M 126 374.12297443487745 L 108 405.29988897111724 L 72 405.29988897111724 L 54 374.12297443487745 L 71.99999999999999 342.94605989863766 L 108 342.94605989863766 L 126 374.12297443487745Z" fill="none" stroke="#0063c7" stroke-width="1" stroke-opacity="0.5" /><circle cx="126" cy="374.12297443487745" r="3" fill="#004285" /><circle cx="108" cy="405.29988897111724" r="3" fill="#004285" /><circle cx="72" cy="405.29988897111724" r="3" fill="#004285" /><circle cx="54" cy="374.12297443487745" r="3" fill="#004285" /><circle cx="71.99999999999999" cy="342.94605989863766" r="3" fill="#004285" /><circle cx="108" cy="342.94605989863766" r="3" fill="#004285" /><path d="M 342 374.12297443487745 L 324 405.29988897111724 L 288 405.29988897111724 L 270 374.12297443487745 L 288 342.94605989863766 L 324 342.94605989863766 L 342 374.12297443487745Z" fill="none" stroke="#0063c7" stroke-width="1" stroke-opacity="0.5" /><circle cx="342" cy="374.12297443487745" r="3" fill="#004285" /><circle cx="324" cy="405.29988897111724" r="3" fill="#004285" /><circle cx="288" cy="405.29988897111724" r="3" fill="#004285" /><circle cx="270" cy="374.12297443487745" r="3" fill="#004285" /><circle cx="288" cy="342.94605989863766" r="3" fill="#004285" /><circle cx="324" cy="342.94605989863766" r="3" fill="#004285" /><path d="M 450 374.12297443487745 L 432 405.29988897111724 L 396 405.29988897111724 L 378 374.12297443487745 L 396 342.94605989863766 L 432 342.94605989863766 L 450 374.12297443487745Z" fill="none" stroke="#0063c7" stroke-width="1" stroke-opacity="0.5" /><circle cx="450" cy="374.12297443487745" r="3" fill="#004285" /><circle cx="432" cy="405.29988897111724" r="3" fill="#004285" /><circle cx="396" cy="405.29988897111724" r="3" fill="#004285" /><circle cx="378" cy="374.12297443487745" r="3" fill="#004285" /><circle cx="396" cy="342.94605989863766" r="3" fill="#004285" /><circle cx="432" cy="342.94605989863766" r="3" fill="#004285" /><path d="M 504 342.94605989863766 L 486 374.12297443487745 L 450 374.12297443487745 L 432 342.94605989863766 L 450 311.76914536239786 L 486 311.76914536239786 L 504 342.94605989863766Z" fill="none" stroke="#0063c7" stroke-width="1" stroke-opacity="0.5" /><circle cx="504" cy="342.94605989863766" r="3" fill="#004285" /><circle cx="486" cy="374.12297443487745" r="3" fill="#004285" /><circle cx="450" cy="374.12297443487745" r="3" fill="#004285" /><circle cx="432" cy="342.94605989863766" r="3" fill="#004285" /><circle cx="450" cy="311.76914536239786" r="3" fill="#004285" /><circle cx="486" cy="311.76914536239786" r="3" fill="#004285" /><path d="M 666 374.12297443487745 L 648 405.29988897111724 L 612 405.29988897111724 L 594 374.12297443487745 L 612 342.94605989863766 L 648 342.94605989863766 L 666 374.12297443487745Z" fill="none" stroke="#0063c7" stroke-width="1" stroke-opacity="0.5" /><circle cx="666" cy="374.12297443487745" r="3" fill="#004285" /><circle cx="648" cy="405.29988897111724" r="3" fill="#004285" /><circle cx="612" cy="405.29988897111724" r="3" fill="#004285" /><circle cx="594" cy="374.12297443487745" r="3" fill="#004285" /><circle cx="612" cy="342.94605989863766" r="3" fill="#004285" /><circle cx="648" cy="342.94605989863766" r="3" fill="#004285" /><path d="M 720 342.94605989863766 L 702 374.12297443487745 L 666 374.12297443487745 L 648 342.94605989863766 L 666 311.76914536239786 L 702 311.76914536239786 L 720 342.94605989863766Z" fill="none" stroke="#0063c7" stroke-width="1" stroke-opacity="0.5" /><circle cx="720" cy="342.94605989863766" r="3" fill="#004285" /><circle cx="702" cy="374.12297443487745" r="3" fill="#004285" /><circle cx="666" cy="374.12297443487745" r="3" fill="#004285" /><circle cx="648" cy="342.94605989863766" r="3" fill="#004285" /><circle cx="666" cy="311.76914536239786" r="3" fill="#004285" /><circle cx="702" cy="311.76914536239786" r="3" fill="#004285" /><path d="M 828 342.94605989863766 L 810 374.12297443487745 L 774 374.12297443487745 L 756 342.94605989863766 L 774 311.76914536239786 L 810 311.76914536239786 L 828 342.94605989863766Z" fill="none" stroke="#0063c7" stroke-width="1" stroke-opacity="0.5" /><circle cx="828" cy="342.94605989863766" r="3" fill="#004285" /><circle cx="810" cy="374.12297443487745" r="3" fill="#004285" /><circle cx="774" cy="374.12297443487745" r="3" fill="#004285" /><circle cx="756" cy="342.94605989863766" r="3" fill="#004285" /><circle cx="774" cy="311.76914536239786" r="3" fill="#004285" /><circle cx="810" cy="311.76914536239786" r="3" fill="#004285" /><path d="M 882 374.12297443487745 L 864 405.29988897111724 L 828 405.29988897111724 L 810 374.12297443487745 L 828 342.94605989863766 L 864 342.94605989863766 L 882 374.12297443487745Z" fill="none" stroke="#0063c7" stroke-width="1" stroke-opacity="0.5" /><circle cx="882" cy="374.12297443487745" r="3" fill="#004285" /><circle cx="864" cy="405.29988897111724" r="3" fill="#004285" /><circle cx="828" cy="405.29988897111724" r="3" fill="#004285" /><circle cx="810" cy="374.12297443487745" r="3" fill="#004285" /><circle cx="828" cy="342.94605989863766" r="3" fill="#004285" /><circle cx="864" cy="342.94605989863766" r="3" fill="#004285" /><path d="M 936 342.94605989863766 L 918 374.12297443487745 L 882 374.12297443487745 L 864 342.94605989863766 L 882 311.76914536239786 L 918 311.76914536239786 L 936 342.94605989863766Z" fill="none" stroke="#0063c7" stroke-width="1" stroke-opacity="0.5" /><circle cx="936" cy="342.94605989863766" r="3" fill="#004285" /><circle cx="918" cy="374.12297443487745" r="3" fill="#004285" /><circle cx="882" cy="374.12297443487745" r="3" fill="#004285" /><circle cx="864" cy="342.94605989863766" r="3" fill="#004285" /><circle cx="882" cy="311.76914536239786" r="3" fill="#004285" /><circle cx="918" cy="311.76914536239786" r="3" fill="#004285" /><path d="M 72 405.29988897111724 L 54 436.47680350735703 L 18.000000000000007 436.47680350735703 L 0 405.29988897111724 L 17.999999999999986 374.12297443487745 L 54 374.12297443487745 L 72 405.29988897111724Z" fill="none" stroke="#0063c7" stroke-width="1" stroke-opacity="0.5" /><circle cx="72" cy="405.29988897111724" r="3" fill="#004285" /><circle cx="54" cy="436.47680350735703" r="3" fill="#004285" /><circle cx="18.000000000000007" cy="436.47680350735703" r="3" fill="#004285" /><circle cx="0" cy="405.29988897111724" r="3" fill="#004285" /><circle cx="17.999999999999986" cy="374.12297443487745" r="3" fill="#004285" /><circle cx="54" cy="374.12297443487745" r="3" fill="#004285" /><path d="M 828 405.29988897111724 L 810 436.47680350735703 L 774 436.47680350735703 L 756 405.29988897111724 L 774 374.12297443487745 L 810 374.12297443487745 L 828 405.29988897111724Z" fill="none" stroke="#0063c7" stroke-width="1" stroke-opacity="0.5" /><circle cx="828" cy="405.29988897111724" r="3" fill="#004285" /><circle cx="810" cy="436.47680350735703" r="3" fill="#004285" /><circle cx="774" cy="436.47680350735703" r="3" fill="#004285" /><circle cx="756" cy="405.29988897111724" r="3" fill="#004285" /><circle cx="774" cy="374.12297443487745" r="3" fill="#004285" /><circle cx="810" cy="374.12297443487745" r="3" fill="#004285" /><path d="M 990 436.47680350735703 L 972 467.6537180435968 L 936 467.6537180435968 L 918 436.47680350735703 L 936 405.29988897111724 L 972 405.29988897111724 L 990 436.47680350735703Z" fill="none" stroke="#0063c7" stroke-width="1" stroke-opacity="0.5" /><circle cx="990" cy="436.47680350735703" r="3" fill="#004285" /><circle cx="972" cy="467.6537180435968" r="3" fill="#004285" /><circle cx="936" cy="467.6537180435968" r="3" fill="#004285" /><circle cx="918" cy="436.47680350735703" r="3" fill="#004285" /><circle cx="936" cy="405.29988897111724" r="3" fill="#004285" /><circle cx="972" cy="405.29988897111724" r="3" fill="#004285" /><path d="M 1098 436.47680350735703 L 1080 467.6537180435968 L 1044 467.6537180435968 L 1026 436.47680350735703 L 1044 405.29988897111724 L 1080 405.29988897111724 L 1098 436.47680350735703Z" fill="none" stroke="#0063c7" stroke-width="1" stroke-opacity="0.5" /><circle cx="1098" cy="436.47680350735703" r="3" fill="#004285" /><circle cx="1080" cy="467.6537180435968" r="3" fill="#004285" /><circle cx="1044" cy="467.6537180435968" r="3" fill="#004285" /><circle cx="1026" cy="436.47680350735703" r="3" fill="#004285" /><circle cx="1044" cy="405.29988897111724" r="3" fill="#004285" /><circle cx="1080" cy="405.29988897111724" r="3" fill="#004285" /><path d="M 1152 405.29988897111724 L 1134 436.47680350735703 L 1098 436.47680350735703 L 1080 405.29988897111724 L 1098 374.12297443487745 L 1134 374.12297443487745 L 1152 405.29988897111724Z" fill="none" stroke="#0063c7" stroke-width="1" stroke-opacity="0.5" /><circle cx="1152" cy="405.29988897111724" r="3" fill="#004285" /><circle cx="1134" cy="436.47680350735703" r="3" fill="#004285" /><circle cx="1098" cy="436.47680350735703" r="3" fill="#004285" /><circle cx="1080" cy="405.29988897111724" r="3" fill="#004285" /><circle cx="1098" cy="374.12297443487745" r="3" fill="#004285" /><circle cx="1134" cy="374.12297443487745" r="3" fill="#004285" /><path d="M 72 467.6537180435968 L 54 498.8306325798366 L 18.000000000000007 498.8306325798366 L 0 467.6537180435968 L 17.999999999999986 436.47680350735703 L 54 436.47680350735703 L 72 467.6537180435968Z" fill="none" stroke="#0063c7" stroke-width="1" stroke-opacity="0.5" /><circle cx="72" cy="467.6537180435968" r="3" fill="#004285" /><circle cx="54" cy="498.8306325798366" r="3" fill="#004285" /><circle cx="18.000000000000007" cy="498.8306325798366" r="3" fill="#004285" /><circle cx="0" cy="467.6537180435968" r="3" fill="#004285" /><circle cx="17.999999999999986" cy="436.47680350735703" r="3" fill="#004285" /><circle cx="54" cy="436.47680350735703" r="3" fill="#004285" /><path d="M 612 467.6537180435968 L 594 498.8306325798366 L 558 498.8306325798366 L 540 467.6537180435968 L 558 436.47680350735703 L 594 436.47680350735703 L 612 467.6537180435968Z" fill="none" stroke="#0063c7" stroke-width="1" stroke-opacity="0.5" /><circle cx="612" cy="467.6537180435968" r="3" fill="#004285" /><circle cx="594" cy="498.8306325798366" r="3" fill="#004285" /><circle cx="558" cy="498.8306325798366" r="3" fill="#004285" /><circle cx="540" cy="467.6537180435968" r="3" fill="#004285" /><circle cx="558" cy="436.47680350735703" r="3" fill="#004285" /><circle cx="594" cy="436.47680350735703" r="3" fill="#004285" /><path d="M 828 467.6537180435968 L 810 498.8306325798366 L 774 498.8306325798366 L 756 467.6537180435968 L 774 436.47680350735703 L 810 436.47680350735703 L 828 467.6537180435968Z" fill="none" stroke="#0063c7" stroke-width="1" stroke-opacity="0.5" /><circle cx="828" cy="467.6537180435968" r="3" fill="#004285" /><circle cx="810" cy="498.8306325798366" r="3" fill="#004285" /><circle cx="774" cy="498.8306325798366" r="3" fill="#004285" /><circle cx="756" cy="467.6537180435968" r="3" fill="#004285" /><circle cx="774" cy="436.47680350735703" r="3" fill="#004285" /><circle cx="810" cy="436.47680350735703" r="3" fill="#004285" /><path d="M 936 467.6537180435968 L 918 498.8306325798366 L 882 498.8306325798366 L 864 467.6537180435968 L 882 436.47680350735703 L 918 436.47680350735703 L 936 467.6537180435968Z" fill="none" stroke="#0063c7" stroke-width="1" stroke-opacity="0.5" /><circle cx="936" cy="467.6537180435968" r="3" fill="#004285" /><circle cx="918" cy="498.8306325798366" r="3" fill="#004285" /><circle cx="882" cy="498.8306325798366" r="3" fill="#004285" /><circle cx="864" cy="467.6537180435968" r="3" fill="#004285" /><circle cx="882" cy="436.47680350735703" r="3" fill="#004285" /><circle cx="918" cy="436.47680350735703" r="3" fill="#004285" /><path d="M 990 498.8306325798366 L 972 530.0075471160764 L 936 530.0075471160765 L 918 498.8306325798366 L 936 467.6537180435968 L 972 467.6537180435968 L 990 498.8306325798366Z" fill="none" stroke="#0063c7" stroke-width="1" stroke-opacity="0.5" /><circle cx="990" cy="498.8306325798366" r="3" fill="#004285" /><circle cx="972" cy="530.0075471160764" r="3" fill="#004285" /><circle cx="936" cy="530.0075471160765" r="3" fill="#004285" /><circle cx="918" cy="498.8306325798366" r="3" fill="#004285" /><circle cx="936" cy="467.6537180435968" r="3" fill="#004285" /><circle cx="972" cy="467.6537180435968" r="3" fill="#004285" /><path d="M 1206 498.8306325798366 L 1188 530.0075471160764 L 1152 530.0075471160765 L 1134 498.8306325798366 L 1152 467.6537180435968 L 1188 467.6537180435968 L 1206 498.8306325798366Z" fill="none" stroke="#0063c7" stroke-width="1" stroke-opacity="0.5" /><circle cx="1206" cy="498.8306325798366" r="3" fill="#004285" /><circle cx="1188" cy="530.0075471160764" r="3" fill="#004285" /><circle cx="1152" cy="530.0075471160765" r="3" fill="#004285" /><circle cx="1134" cy="498.8306325798366" r="3" fill="#004285" /><circle cx="1152" cy="467.6537180435968" r="3" fill="#004285" /><circle cx="1188" cy="467.6537180435968" r="3" fill="#004285" /><path d="M 126 561.1844616523161 L 108 592.3613761885559 L 72 592.3613761885559 L 54 561.1844616523161 L 71.99999999999999 530.0075471160764 L 108 530.0075471160764 L 126 561.1844616523161Z" fill="none" stroke="#0063c7" stroke-width="1" stroke-opacity="0.5" /><circle cx="126" cy="561.1844616523161" r="3" fill="#004285" /><circle cx="108" cy="592.3613761885559" r="3" fill="#004285" /><circle cx="72" cy="592.3613761885559" r="3" fill="#004285" /><circle cx="54" cy="561.1844616523161" r="3" fill="#004285" /><circle cx="71.99999999999999" cy="530.0075471160764" r="3" fill="#004285" /><circle cx="108" cy="530.0075471160764" r="3" fill="#004285" /><path d="M 612 530.0075471160764 L 594 561.1844616523161 L 558 561.1844616523161 L 540 530.0075471160764 L 558 498.83063257983656 L 594 498.83063257983656 L 612 530.0075471160764Z" fill="none" stroke="#0063c7" stroke-width="1" stroke-opacity="0.5" /><circle cx="612" cy="530.0075471160764" r="3" fill="#004285" /><circle cx="594" cy="561.1844616523161" r="3" fill="#004285" /><circle cx="558" cy="561.1844616523161" r="3" fill="#004285" /><circle cx="540" cy="530.0075471160764" r="3" fill="#004285" /><circle cx="558" cy="498.83063257983656" r="3" fill="#004285" /><circle cx="594" cy="498.83063257983656" r="3" fill="#004285" /><path d="M 774 561.1844616523161 L 756 592.3613761885559 L 720 592.3613761885559 L 702 561.1844616523161 L 720 530.0075471160764 L 756 530.0075471160764 L 774 561.1844616523161Z" fill="none" stroke="#0063c7" stroke-width="1" stroke-opacity="0.5" /><circle cx="774" cy="561.1844616523161" r="3" fill="#004285" /><circle cx="756" cy="592.3613761885559" r="3" fill="#004285" /><circle cx="720" cy="592.3613761885559" r="3" fill="#004285" /><circle cx="702" cy="561.1844616523161" r="3" fill="#004285" /><circle cx="720" cy="530.0075471160764" r="3" fill="#004285" /><circle cx="756" cy="530.0075471160764" r="3" fill="#004285" /><path d="M 990 561.1844616523161 L 972 592.3613761885559 L 936 592.3613761885559 L 918 561.1844616523161 L 936 530.0075471160764 L 972 530.0075471160764 L 990 561.1844616523161Z" fill="none" stroke="#0063c7" stroke-width="1" stroke-opacity="0.5" /><circle cx="990" cy="561.1844616523161" r="3" fill="#004285" /><circle cx="972" cy="592.3613761885559" r="3" fill="#004285" /><circle cx="936" cy="592.3613761885559" r="3" fill="#004285" /><circle cx="918" cy="561.1844616523161" r="3" fill="#004285" /><circle cx="936" cy="530.0075471160764" r="3" fill="#004285" /><circle cx="972" cy="530.0075471160764" r="3" fill="#004285" /><path d="M 1098 561.1844616523161 L 1080 592.3613761885559 L 1044 592.3613761885559 L 1026 561.1844616523161 L 1044 530.0075471160764 L 1080 530.0075471160764 L 1098 561.1844616523161Z" fill="none" stroke="#0063c7" stroke-width="1" stroke-opacity="0.5" /><circle cx="1098" cy="561.1844616523161" r="3" fill="#004285" /><circle cx="1080" cy="592.3613761885559" r="3" fill="#004285" /><circle cx="1044" cy="592.3613761885559" r="3" fill="#004285" /><circle cx="1026" cy="561.1844616523161" r="3" fill="#004285" /><circle cx="1044" cy="530.0075471160764" r="3" fill="#004285" /><circle cx="1080" cy="530.0075471160764" r="3" fill="#004285" /><path d="M 234 623.5382907247957 L 216 654.7152052610355 L 180 654.7152052610355 L 162 623.5382907247957 L 180 592.3613761885559 L 216 592.3613761885559 L 234 623.5382907247957Z" fill="none" stroke="#0063c7" stroke-width="1" stroke-opacity="0.5" /><circle cx="234" cy="623.5382907247957" r="3" fill="#004285" /><circle cx="216" cy="654.7152052610355" r="3" fill="#004285" /><circle cx="180" cy="654.7152052610355" r="3" fill="#004285" /><circle cx="162" cy="623.5382907247957" r="3" fill="#004285" /><circle cx="180" cy="592.3613761885559" r="3" fill="#004285" /><circle cx="216" cy="592.3613761885559" r="3" fill="#004285" /><path d="M 288 592.3613761885559 L 270 623.5382907247957 L 234 623.5382907247957 L 216 592.3613761885559 L 234 561.1844616523161 L 270 561.1844616523161 L 288 592.3613761885559Z" fill="none" stroke="#0063c7" stroke-width="1" stroke-opacity="0.5" /><circle cx="288" cy="592.3613761885559" r="3" fill="#004285" /><circle cx="270" cy="623.5382907247957" r="3" fill="#004285" /><circle cx="234" cy="623.5382907247957" r="3" fill="#004285" /><circle cx="216" cy="592.3613761885559" r="3" fill="#004285" /><circle cx="234" cy="561.1844616523161" r="3" fill="#004285" /><circle cx="270" cy="561.1844616523161" r="3" fill="#004285" /><path d="M 450 623.5382907247957 L 432 654.7152052610355 L 396 654.7152052610355 L 378 623.5382907247957 L 396 592.3613761885559 L 432 592.3613761885559 L 450 623.5382907247957Z" fill="none" stroke="#0063c7" stroke-width="1" stroke-opacity="0.5" /><circle cx="450" cy="623.5382907247957" r="3" fill="#004285" /><circle cx="432" cy="654.7152052610355" r="3" fill="#004285" /><circle cx="396" cy="654.7152052610355" r="3" fill="#004285" /><circle cx="378" cy="623.5382907247957" r="3" fill="#004285" /><circle cx="396" cy="592.3613761885559" r="3" fill="#004285" /><circle cx="432" cy="592.3613761885559" r="3" fill="#004285" /><path d="M 504 592.3613761885559 L 486 623.5382907247957 L 450 623.5382907247957 L 432 592.3613761885559 L 450 561.1844616523161 L 486 561.1844616523161 L 504 592.3613761885559Z" fill="none" stroke="#0063c7" stroke-width="1" stroke-opacity="0.5" /><circle cx="504" cy="592.3613761885559" r="3" fill="#004285" /><circle cx="486" cy="623.5382907247957" r="3" fill="#004285" /><circle cx="450" cy="623.5382907247957" r="3" fill="#004285" /><circle cx="432" cy="592.3613761885559" r="3" fill="#004285" /><circle cx="450" cy="561.1844616523161" r="3" fill="#004285" /><circle cx="486" cy="561.1844616523161" r="3" fill="#004285" /><path d="M 612 592.3613761885559 L 594 623.5382907247957 L 558 623.5382907247957 L 540 592.3613761885559 L 558 561.1844616523161 L 594 561.1844616523161 L 612 592.3613761885559Z" fill="none" stroke="#0063c7" stroke-width="1" stroke-opacity="0.5" /><circle cx="612" cy="592.3613761885559" r="3" fill="#004285" /><circle cx="594" cy="623.5382907247957" r="3" fill="#004285" /><circle cx="558" cy="623.5382907247957" r="3" fill="#004285" /><circle cx="540" cy="592.3613761885559" r="3" fill="#004285" /><circle cx="558" cy="561.1844616523161" r="3" fill="#004285" /><circle cx="594" cy="561.1844616523161" r="3" fill="#004285" /><path d="M 180 654.7152052610355 L 162 685.8921197972753 L 126 685.8921197972753 L 108 654.7152052610355 L 125.99999999999999 623.5382907247957 L 162 623.5382907247957 L 180 654.7152052610355Z" fill="none" stroke="#0063c7" stroke-width="1" stroke-opacity="0.5" /><circle cx="180" cy="654.7152052610355" r="3" fill="#004285" /><circle cx="162" cy="685.8921197972753" r="3" fill="#004285" /><circle cx="126" cy="685.8921197972753" r="3" fill="#004285" /><circle cx="108" cy="654.7152052610355" r="3" fill="#004285" /><circle cx="125.99999999999999" cy="623.5382907247957" r="3" fill="#004285" /><circle cx="162" cy="623.5382907247957" r="3" fill="#004285" /><path d="M 396 654.7152052610355 L 378 685.8921197972753 L 342 685.8921197972753 L 324 654.7152052610355 L 342 623.5382907247957 L 378 623.5382907247957 L 396 654.7152052610355Z" fill="none" stroke="#0063c7" stroke-width="1" stroke-opacity="0.5" /><circle cx="396" cy="654.7152052610355" r="3" fill="#004285" /><circle cx="378" cy="685.8921197972753" r="3" fill="#004285" /><circle cx="342" cy="685.8921197972753" r="3" fill="#004285" /><circle cx="324" cy="654.7152052610355" r="3" fill="#004285" /><circle cx="342" cy="623.5382907247957" r="3" fill="#004285" /><circle cx="378" cy="623.5382907247957" r="3" fill="#004285" /><path d="M 990 685.8921197972753 L 972 717.0690343335151 L 936 717.0690343335151 L 918 685.8921197972753 L 936 654.7152052610355 L 972 654.7152052610355 L 990 685.8921197972753Z" fill="none" stroke="#0063c7" stroke-width="1" stroke-opacity="0.5" /><circle cx="990" cy="685.8921197972753" r="3" fill="#004285" /><circle cx="972" cy="717.0690343335151" r="3" fill="#004285" /><circle cx="936" cy="717.0690343335151" r="3" fill="#004285" /><circle cx="918" cy="685.8921197972753" r="3" fill="#004285" /><circle cx="936" cy="654.7152052610355" r="3" fill="#004285" /><circle cx="972" cy="654.7152052610355" r="3" fill="#004285" /><path d="M 1152 654.7152052610355 L 1134 685.8921197972753 L 1098 685.8921197972753 L 1080 654.7152052610355 L 1098 623.5382907247957 L 1134 623.5382907247957 L 1152 654.7152052610355Z" fill="none" stroke="#0063c7" stroke-width="1" stroke-opacity="0.5" /><circle cx="1152" cy="654.7152052610355" r="3" fill="#004285" /><circle cx="1134" cy="685.8921197972753" r="3" fill="#004285" /><circle cx="1098" cy="685.8921197972753" r="3" fill="#004285" /><circle cx="1080" cy="654.7152052610355" r="3" fill="#004285" /><circle cx="1098" cy="623.5382907247957" r="3" fill="#004285" /><circle cx="1134" cy="623.5382907247957" r="3" fill="#004285" /><path d="M 396 717.0690343335151 L 378 748.2459488697549 L 342 748.2459488697549 L 324 717.0690343335151 L 342 685.8921197972753 L 378 685.8921197972753 L 396 717.0690343335151Z" fill="none" stroke="#0063c7" stroke-width="1" stroke-opacity="0.5" /><circle cx="396" cy="717.0690343335151" r="3" fill="#004285" /><circle cx="378" cy="748.2459488697549" r="3" fill="#004285" /><circle cx="342" cy="748.2459488697549" r="3" fill="#004285" /><circle cx="324" cy="717.0690343335151" r="3" fill="#004285" /><circle cx="342" cy="685.8921197972753" r="3" fill="#004285" /><circle cx="378" cy="685.8921197972753" r="3" fill="#004285" /><path d="M 504 717.0690343335151 L 486 748.2459488697549 L 450 748.2459488697549 L 432 717.0690343335151 L 450 685.8921197972753 L 486 685.8921197972753 L 504 717.0690343335151Z" fill="none" stroke="#0063c7" stroke-width="1" stroke-opacity="0.5" /><circle cx="504" cy="717.0690343335151" r="3" fill="#004285" /><circle cx="486" cy="748.2459488697549" r="3" fill="#004285" /><circle cx="450" cy="748.2459488697549" r="3" fill="#004285" /><circle cx="432" cy="717.0690343335151" r="3" fill="#004285" /><circle cx="450" cy="685.8921197972753" r="3" fill="#004285" /><circle cx="486" cy="685.8921197972753" r="3" fill="#004285" /><path d="M 666 748.2459488697549 L 648 779.4228634059947 L 612 779.4228634059947 L 594 748.2459488697549 L 612 717.0690343335151 L 648 717.0690343335151 L 666 748.2459488697549Z" fill="none" stroke="#0063c7" stroke-width="1" stroke-opacity="0.5" /><circle cx="666" cy="748.2459488697549" r="3" fill="#004285" /><circle cx="648" cy="779.4228634059947" r="3" fill="#004285" /><circle cx="612" cy="779.4228634059947" r="3" fill="#004285" /><circle cx="594" cy="748.2459488697549" r="3" fill="#004285" /><circle cx="612" cy="717.0690343335151" r="3" fill="#004285" /><circle cx="648" cy="717.0690343335151" r="3" fill="#004285" /><path d="M 774 748.2459488697549 L 756 779.4228634059947 L 720 779.4228634059947 L 702 748.2459488697549 L 720 717.0690343335151 L 756 717.0690343335151 L 774 748.2459488697549Z" fill="none" stroke="#0063c7" stroke-width="1" stroke-opacity="0.5" /><circle cx="774" cy="748.2459488697549" r="3" fill="#004285" /><circle cx="756" cy="779.4228634059947" r="3" fill="#004285" /><circle cx="720" cy="779.4228634059947" r="3" fill="#004285" /><circle cx="702" cy="748.2459488697549" r="3" fill="#004285" /><circle cx="720" cy="717.0690343335151" r="3" fill="#004285" /><circle cx="756" cy="717.0690343335151" r="3" fill="#004285" /><path d="M 936 717.0690343335151 L 918 748.2459488697549 L 882 748.2459488697549 L 864 717.0690343335151 L 882 685.8921197972753 L 918 685.8921197972753 L 936 717.0690343335151Z" fill="none" stroke="#0063c7" stroke-width="1" stroke-opacity="0.5" /><circle cx="936" cy="717.0690343335151" r="3" fill="#004285" /><circle cx="918" cy="748.2459488697549" r="3" fill="#004285" /><circle cx="882" cy="748.2459488697549" r="3" fill="#004285" /><circle cx="864" cy="717.0690343335151" r="3" fill="#004285" /><circle cx="882" cy="685.8921197972753" r="3" fill="#004285" /><circle cx="918" cy="685.8921197972753" r="3" fill="#004285" /><path d="M 1152 717.0690343335151 L 1134 748.2459488697549 L 1098 748.2459488697549 L 1080 717.0690343335151 L 1098 685.8921197972753 L 1134 685.8921197972753 L 1152 717.0690343335151Z" fill="none" stroke="#0063c7" stroke-width="1" stroke-opacity="0.5" /><circle cx="1152" cy="717.0690343335151" r="3" fill="#004285" /><circle cx="1134" cy="748.2459488697549" r="3" fill="#004285" /><circle cx="1098" cy="748.2459488697549" r="3" fill="#004285" /><circle cx="1080" cy="717.0690343335151" r="3" fill="#004285" /><circle cx="1098" cy="685.8921197972753" r="3" fill="#004285" /><circle cx="1134" cy="685.8921197972753" r="3" fill="#004285" /><path d="M 72 779.4228634059947 L 54 810.5997779422345 L 18.000000000000007 810.5997779422345 L 0 779.4228634059947 L 17.999999999999986 748.2459488697549 L 54 748.2459488697549 L 72 779.4228634059947Z" fill="none" stroke="#0063c7" stroke-width="1" stroke-opacity="0.5" /><circle cx="72" cy="779.4228634059947" r="3" fill="#004285" /><circle cx="54" cy="810.5997779422345" r="3" fill="#004285" /><circle cx="18.000000000000007" cy="810.5997779422345" r="3" fill="#004285" /><circle cx="0" cy="779.4228634059947" r="3" fill="#004285" /><circle cx="17.999999999999986" cy="748.2459488697549" r="3" fill="#004285" /><circle cx="54" cy="748.2459488697549" r="3" fill="#004285" /><path d="M 342 810.5997779422345 L 324 841.7766924784743 L 288 841.7766924784743 L 270 810.5997779422345 L 288 779.4228634059947 L 324 779.4228634059947 L 342 810.5997779422345Z" fill="none" stroke="#0063c7" stroke-width="1" stroke-opacity="0.5" /><circle cx="342" cy="810.5997779422345" r="3" fill="#004285" /><circle cx="324" cy="841.7766924784743" r="3" fill="#004285" /><circle cx="288" cy="841.7766924784743" r="3" fill="#004285" /><circle cx="270" cy="810.5997779422345" r="3" fill="#004285" /><circle cx="288" cy="779.4228634059947" r="3" fill="#004285" /><circle cx="324" cy="779.4228634059947" r="3" fill="#004285" /><path d="M 396 779.4228634059947 L 378 810.5997779422345 L 342 810.5997779422345 L 324 779.4228634059947 L 342 748.2459488697549 L 378 748.2459488697549 L 396 779.4228634059947Z" fill="none" stroke="#0063c7" stroke-width="1" stroke-opacity="0.5" /><circle cx="396" cy="779.4228634059947" r="3" fill="#004285" /><circle cx="378" cy="810.5997779422345" r="3" fill="#004285" /><circle cx="342" cy="810.5997779422345" r="3" fill="#004285" /><circle cx="324" cy="779.4228634059947" r="3" fill="#004285" /><circle cx="342" cy="748.2459488697549" r="3" fill="#004285" /><circle cx="378" cy="748.2459488697549" r="3" fill="#004285" /><path d="M 450 810.5997779422345 L 432 841.7766924784743 L 396 841.7766924784743 L 378 810.5997779422345 L 396 779.4228634059947 L 432 779.4228634059947 L 450 810.5997779422345Z" fill="none" stroke="#0063c7" stroke-width="1" stroke-opacity="0.5" /><circle cx="450" cy="810.5997779422345" r="3" fill="#004285" /><circle cx="432" cy="841.7766924784743" r="3" fill="#004285" /><circle cx="396" cy="841.7766924784743" r="3" fill="#004285" /><circle cx="378" cy="810.5997779422345" r="3" fill="#004285" /><circle cx="396" cy="779.4228634059947" r="3" fill="#004285" /><circle cx="432" cy="779.4228634059947" r="3" fill="#004285" /><path d="M 72 841.7766924784743 L 54 872.9536070147141 L 18.000000000000007 872.9536070147141 L 0 841.7766924784743 L 17.999999999999986 810.5997779422345 L 54 810.5997779422345 L 72 841.7766924784743Z" fill="none" stroke="#0063c7" stroke-width="1" stroke-opacity="0.5" /><circle cx="72" cy="841.7766924784743" r="3" fill="#004285" /><circle cx="54" cy="872.9536070147141" r="3" fill="#004285" /><circle cx="18.000000000000007" cy="872.9536070147141" r="3" fill="#004285" /><circle cx="0" cy="841.7766924784743" r="3" fill="#004285" /><circle cx="17.999999999999986" cy="810.5997779422345" r="3" fill="#004285" /><circle cx="54" cy="810.5997779422345" r="3" fill="#004285" /><path d="M 504 841.7766924784743 L 486 872.9536070147141 L 450 872.9536070147141 L 432 841.7766924784743 L 450 810.5997779422345 L 486 810.5997779422345 L 504 841.7766924784743Z" fill="none" stroke="#0063c7" stroke-width="1" stroke-opacity="0.5" /><circle cx="504" cy="841.7766924784743" r="3" fill="#004285" /><circle cx="486" cy="872.9536070147141" r="3" fill="#004285" /><circle cx="450" cy="872.9536070147141" r="3" fill="#004285" /><circle cx="432" cy="841.7766924784743" r="3" fill="#004285" /><circle cx="450" cy="810.5997779422345" r="3" fill="#004285" /><circle cx="486" cy="810.5997779422345" r="3" fill="#004285" /><path d="M 666 872.9536070147141 L 648 904.1305215509539 L 612 904.1305215509539 L 594 872.9536070147141 L 612 841.7766924784743 L 648 841.7766924784743 L 666 872.9536070147141Z" fill="none" stroke="#0063c7" stroke-width="1" stroke-opacity="0.5" /><circle cx="666" cy="872.9536070147141" r="3" fill="#004285" /><circle cx="648" cy="904.1305215509539" r="3" fill="#004285" /><circle cx="612" cy="904.1305215509539" r="3" fill="#004285" /><circle cx="594" cy="872.9536070147141" r="3" fill="#004285" /><circle cx="612" cy="841.7766924784743" r="3" fill="#004285" /><circle cx="648" cy="841.7766924784743" r="3" fill="#004285" /><path d="M 720 841.7766924784743 L 702 872.9536070147141 L 666 872.9536070147141 L 648 841.7766924784743 L 666 810.5997779422345 L 702 810.5997779422345 L 720 841.7766924784743Z" fill="none" stroke="#0063c7" stroke-width="1" stroke-opacity="0.5" /><circle cx="720" cy="841.7766924784743" r="3" fill="#004285" /><circle cx="702" cy="872.9536070147141" r="3" fill="#004285" /><circle cx="666" cy="872.9536070147141" r="3" fill="#004285" /><circle cx="648" cy="841.7766924784743" r="3" fill="#004285" /><circle cx="666" cy="810.5997779422345" r="3" fill="#004285" /><circle cx="702" cy="810.5997779422345" r="3" fill="#004285" /><path d="M 990 872.9536070147141 L 972 904.1305215509539 L 936 904.1305215509539 L 918 872.9536070147141 L 936 841.7766924784743 L 972 841.7766924784743 L 990 872.9536070147141Z" fill="none" stroke="#0063c7" stroke-width="1" stroke-opacity="0.5" /><circle cx="990" cy="872.9536070147141" r="3" fill="#004285" /><circle cx="972" cy="904.1305215509539" r="3" fill="#004285" /><circle cx="936" cy="904.1305215509539" r="3" fill="#004285" /><circle cx="918" cy="872.9536070147141" r="3" fill="#004285" /><circle cx="936" cy="841.7766924784743" r="3" fill="#004285" /><circle cx="972" cy="841.7766924784743" r="3" fill="#004285" /><path d="M 126 935.3074360871937 L 108 966.4843506234334 L 72 966.4843506234334 L 54 935.3074360871937 L 71.99999999999999 904.1305215509539 L 108 904.1305215509539 L 126 935.3074360871937Z" fill="none" stroke="#0063c7" stroke-width="1" stroke-opacity="0.5" /><circle cx="126" cy="935.3074360871937" r="3" fill="#004285" /><circle cx="108" cy="966.4843506234334" r="3" fill="#004285" /><circle cx="72" cy="966.4843506234334" r="3" fill="#004285" /><circle cx="54" cy="935.3074360871937" r="3" fill="#004285" /><circle cx="71.99999999999999" cy="904.1305215509539" r="3" fill="#004285" /><circle cx="108" cy="904.1305215509539" r="3" fill="#004285" /><path d="M 342 935.3074360871937 L 324 966.4843506234334 L 288 966.4843506234334 L 270 935.3074360871937 L 288 904.1305215509539 L 324 904.1305215509539 L 342 935.3074360871937Z" fill="none" stroke="#0063c7" stroke-width="1" stroke-opacity="0.5" /><circle cx="342" cy="935.3074360871937" r="3" fill="#004285" /><circle cx="324" cy="966.4843506234334" r="3" fill="#004285" /><circle cx="288" cy="966.4843506234334" r="3" fill="#004285" /><circle cx="270" cy="935.3074360871937" r="3" fill="#004285" /><circle cx="288" cy="904.1305215509539" r="3" fill="#004285" /><circle cx="324" cy="904.1305215509539" r="3" fill="#004285" /><path d="M 450 935.3074360871937 L 432 966.4843506234334 L 396 966.4843506234334 L 378 935.3074360871937 L 396 904.1305215509539 L 432 904.1305215509539 L 450 935.3074360871937Z" fill="none" stroke="#0063c7" stroke-width="1" stroke-opacity="0.5" /><circle cx="450" cy="935.3074360871937" r="3" fill="#004285" /><circle cx="432" cy="966.4843506234334" r="3" fill="#004285" /><circle cx="396" cy="966.4843506234334" r="3" fill="#004285" /><circle cx="378" cy="935.3074360871937" r="3" fill="#004285" /><circle cx="396" cy="904.1305215509539" r="3" fill="#004285" /><circle cx="432" cy="904.1305215509539" r="3" fill="#004285" /><path d="M 612 904.1305215509539 L 594 935.3074360871937 L 558 935.3074360871937 L 540 904.1305215509539 L 558 872.9536070147141 L 594 872.9536070147141 L 612 904.1305215509539Z" fill="none" stroke="#0063c7" stroke-width="1" stroke-opacity="0.5" /><circle cx="612" cy="904.1305215509539" r="3" fill="#004285" /><circle cx="594" cy="935.3074360871937" r="3" fill="#004285" /><circle cx="558" cy="935.3074360871937" r="3" fill="#004285" /><circle cx="540" cy="904.1305215509539" r="3" fill="#004285" /><circle cx="558" cy="872.9536070147141" r="3" fill="#004285" /><circle cx="594" cy="872.9536070147141" r="3" fill="#004285" />
    </svg>